<?xml version="1.0" encoding="UTF-8" standalone="no"?>
<!DOCTYPE svg PUBLIC "-//W3C//DTD SVG 1.1//EN" "http://www.w3.org/Graphics/SVG/1.1/DTD/svg11.dtd">
<svg width="100%" height="100%" viewBox="0 0 199 56" version="1.1" xmlns="http://www.w3.org/2000/svg" xmlns:xlink="http://www.w3.org/1999/xlink" xml:space="preserve" xmlns:serif="http://www.serif.com/" style="fill-rule:evenodd;clip-rule:evenodd;stroke-linejoin:round;stroke-miterlimit:2;">
    <g transform="matrix(1,0,0,1,-149.984,-150)">
        <g transform="matrix(1,0,0,2.42237,0,0)">
            <g transform="matrix(6.82266,0,0,2.81653,-4413.18,-2578.6)">
                <g transform="matrix(11.3999,0,0,11.3999,668.267,945.606)">
                    <path d="M0.215,0.01C0.314,0.01 0.381,-0.058 0.381,-0.156L0.381,-0.256L0.277,-0.256L0.277,-0.156C0.277,-0.115 0.252,-0.09 0.216,-0.09C0.18,-0.09 0.155,-0.115 0.155,-0.156L0.155,-0.544C0.155,-0.585 0.18,-0.61 0.216,-0.61C0.252,-0.61 0.277,-0.585 0.277,-0.544L0.277,-0.462L0.381,-0.462L0.381,-0.544C0.381,-0.642 0.314,-0.71 0.215,-0.71C0.116,-0.71 0.049,-0.642 0.049,-0.544L0.049,-0.156C0.049,-0.058 0.116,0.01 0.215,0.01Z" style="fill:rgb(51,51,51);fill-rule:nonzero;"/>
                </g>
                <g transform="matrix(11.3999,0,0,11.3999,673.34,945.606)">
                    <path d="M0.29,0L0.398,0L0.282,-0.7L0.14,-0.7L0.024,0L0.13,0L0.153,-0.155L0.267,-0.155L0.29,0ZM0.167,-0.257L0.21,-0.55L0.253,-0.257L0.167,-0.257Z" style="fill:rgb(51,51,51);fill-rule:nonzero;"/>
                </g>
                <g transform="matrix(11.3999,0,0,11.3999,678.435,945.606)">
                    <path d="M0.205,0.01C0.306,0.01 0.376,-0.062 0.376,-0.162C0.376,-0.239 0.343,-0.29 0.241,-0.392C0.166,-0.467 0.144,-0.499 0.144,-0.543C0.144,-0.587 0.165,-0.61 0.202,-0.61C0.239,-0.61 0.26,-0.582 0.26,-0.528L0.26,-0.508L0.362,-0.519L0.362,-0.537C0.362,-0.642 0.302,-0.71 0.201,-0.71C0.1,-0.71 0.04,-0.642 0.04,-0.538C0.04,-0.461 0.07,-0.407 0.175,-0.308C0.254,-0.233 0.272,-0.201 0.272,-0.157C0.272,-0.116 0.246,-0.09 0.204,-0.09C0.162,-0.09 0.136,-0.121 0.136,-0.172L0.136,-0.198L0.034,-0.187L0.034,-0.162C0.034,-0.062 0.104,0.01 0.205,0.01Z" style="fill:rgb(51,51,51);fill-rule:nonzero;"/>
                </g>
                <g transform="matrix(11.3999,0,0,11.3999,683.372,945.606)">
                    <path d="M0.219,0.01C0.321,0.01 0.389,-0.058 0.389,-0.159L0.389,-0.541C0.389,-0.642 0.321,-0.71 0.219,-0.71C0.117,-0.71 0.049,-0.642 0.049,-0.541L0.049,-0.159C0.049,-0.058 0.117,0.01 0.219,0.01ZM0.219,-0.09C0.18,-0.09 0.155,-0.115 0.155,-0.159L0.155,-0.541C0.155,-0.585 0.18,-0.61 0.219,-0.61C0.258,-0.61 0.283,-0.585 0.283,-0.541L0.283,-0.159C0.283,-0.115 0.258,-0.09 0.219,-0.09Z" style="fill:rgb(51,51,51);fill-rule:nonzero;"/>
                </g>
                <g transform="matrix(11.3999,0,0,11.3999,688.65,945.606)">
                    <path d="M0.219,0.01C0.321,0.01 0.389,-0.058 0.389,-0.159L0.389,-0.541C0.389,-0.642 0.321,-0.71 0.219,-0.71C0.117,-0.71 0.049,-0.642 0.049,-0.541L0.049,-0.159C0.049,-0.058 0.117,0.01 0.219,0.01ZM0.219,-0.09C0.18,-0.09 0.155,-0.115 0.155,-0.159L0.155,-0.541C0.155,-0.585 0.18,-0.61 0.219,-0.61C0.258,-0.61 0.283,-0.585 0.283,-0.541L0.283,-0.159C0.283,-0.115 0.258,-0.09 0.219,-0.09Z" style="fill:rgb(51,51,51);fill-rule:nonzero;"/>
                </g>
                <g transform="matrix(11.3999,0,0,11.3999,693.726,945.606)">
                    <path d="M0.024,-0.6L0.14,-0.6L0.14,0L0.246,0L0.246,-0.6L0.362,-0.6L0.362,-0.7L0.024,-0.7L0.024,-0.6Z" style="fill:rgb(51,51,51);fill-rule:nonzero;"/>
                </g>
            </g>
        </g>
    </g>
</svg>
